<?xml version="1.0" encoding="utf-8"?>
<!-- Generator: Adobe Illustrator 16.0.0, SVG Export Plug-In . SVG Version: 6.00 Build 0)  -->
<!DOCTYPE svg PUBLIC "-//W3C//DTD SVG 1.1//EN" "http://www.w3.org/Graphics/SVG/1.1/DTD/svg11.dtd">
<svg version="1.1" id="Capa_1" xmlns="http://www.w3.org/2000/svg" xmlns:xlink="http://www.w3.org/1999/xlink" x="0px" y="0px"
	 width="14.691px" height="16.438px" viewBox="15.756 0 14.691 16.438" enable-background="new 15.756 0 14.691 16.438"
	 xml:space="preserve">
<path fill="none" stroke="#332958" stroke-width="1.4173" stroke-linecap="round" stroke-linejoin="round" stroke-miterlimit="10" d="
	M25.264,10.392c-1.075,0.327-0.138,0.848-0.138,0.848s-1.561-0.699-2.895-2.66c-1.09-1.611-1.396-2.985-1.306-3.552l0.447,0.66
	c0,0-0.031,0.025,0.963-0.646s0.564-1.684,0.564-1.684s-0.812-1.089-1.295-1.805c-0.484-0.713-1.939-0.36-3.291,0.875
	c-0.74,0.676-1.188,1.149-0.834,3.542c0.209,1.417,1.121,2.972,2.041,4.333c1.01,1.489,2.49,3.135,3.334,3.834
	c1.141,0.944,1.625,1.083,3.084,0.833c0.61-0.104,1.756-0.396,2.363-1.256c0.768-1.086,0.186-1.803,0.186-1.803l-1.119-1.662
	C27.371,10.249,26.332,9.672,25.264,10.392z"/>
</svg>
